<?xml version="1.0" standalone="no"?>
<!DOCTYPE svg PUBLIC "-//W3C//DTD SVG 20010904//EN"
 "http://www.w3.org/TR/2001/REC-SVG-20010904/DTD/svg10.dtd">
<svg version="1.0" xmlns="http://www.w3.org/2000/svg"
 width="343.000000pt" height="341.000000pt" viewBox="0 0 343.000000 341.000000"
 preserveAspectRatio="xMidYMid meet">
<metadata>
Created by potrace 1.16, written by Peter Selinger 2001-2019
</metadata>
<g transform="translate(0.000000,341.000000) scale(0.100000,-0.100000)"
fill="#000000" stroke="none">
<path d="M1490 3403 c-241 -13 -395 -50 -566 -136 -397 -199 -699 -560 -842
-1008 -66 -204 -76 -280 -77 -544 0 -271 14 -373 81 -573 141 -421 442 -769
816 -941 156 -72 472 -160 687 -192 108 -15 400 -6 501 16 660 145 1166 694
1289 1400 50 283 25 624 -66 895 -192 577 -665 990 -1228 1075 -92 14 -413 18
-595 8z m546 -148 c327 -57 618 -225 836 -485 175 -208 290 -447 350 -726 20
-96 23 -136 23 -334 0 -197 -3 -238 -23 -332 -134 -624 -578 -1092 -1152
-1215 -118 -25 -391 -25 -507 0 -577 124 -1011 585 -1143 1213 -27 129 -37
364 -21 504 42 371 193 697 440 954 77 79 199 180 280 231 139 86 339 163 495
189 112 19 314 19 422 1z m-977 -109 c9 -11 6 -18 -18 -35 -25 -18 -43 -21
-135 -21 -58 0 -106 3 -106 7 0 4 12 20 27 35 26 27 31 28 124 28 71 0 100 -4
108 -14z m-208 -152 c11 -14 10 -19 -10 -35 -20 -16 -40 -19 -137 -19 -63 0
-114 3 -114 7 0 4 12 20 27 35 26 27 31 28 124 28 77 0 99 -3 110 -16z m-161
-159 c10 -13 10 -19 -5 -35 -16 -18 -31 -20 -137 -20 -65 0 -118 3 -118 7 0 4
12 20 27 35 26 27 31 28 124 28 74 0 99 -4 109 -15z m-200 -305 c0 -5 -5 -21
-12 -35 -11 -25 -12 -25 -130 -25 -65 0 -118 3 -118 7 0 4 12 20 27 35 26 27
30 28 130 28 59 0 103 -4 103 -10z m-70 -150 c0 -5 -5 -21 -12 -35 -11 -25
-12 -25 -132 -25 l-120 0 34 35 34 35 98 0 c55 0 98 -4 98 -10z m-60 -152 c0
-7 -3 -23 -6 -35 -6 -22 -10 -23 -127 -23 l-121 0 34 35 34 35 93 0 c68 0 93
-3 93 -12z m-70 -333 l0 -35 -120 0 c-66 0 -120 3 -120 7 0 4 12 20 27 35 26
27 31 28 120 28 l93 0 0 -35z m-10 -150 l0 -35 -121 0 c-114 0 -121 1 -108 18
40 53 38 52 136 52 l93 0 0 -35z"/>
<path d="M1288 2620 c-308 -52 -479 -249 -440 -508 27 -184 160 -314 403 -396
41 -14 161 -47 266 -75 105 -27 221 -63 258 -80 37 -17 70 -31 73 -31 13 0
-24 322 -39 333 -2 2 -71 25 -154 51 -195 62 -281 103 -333 160 -67 72 -70
160 -7 215 97 85 298 81 532 -10 l102 -40 73 74 c40 41 84 82 98 91 25 17 25
17 5 32 -43 33 -225 115 -310 139 -170 49 -390 68 -527 45z"/>
<path d="M2385 2461 c-190 -47 -345 -169 -434 -340 -38 -74 -71 -167 -71 -201
0 -9 12 -22 27 -29 46 -21 133 -83 189 -134 l54 -49 0 54 c0 74 33 199 70 262
38 67 116 145 178 179 152 83 317 70 467 -37 35 -26 73 -60 85 -76 12 -17 25
-30 30 -30 10 0 110 144 110 158 0 13 -97 103 -153 141 -160 109 -368 148
-552 102z"/>
<path d="M1880 1828 c0 -2 7 -37 15 -79 8 -42 17 -118 21 -170 l7 -94 66 -71
c36 -39 83 -101 105 -137 21 -37 42 -64 46 -62 32 20 38 331 7 390 -20 40
-140 155 -202 194 -43 27 -65 37 -65 29z"/>
<path d="M2931 1398 c-41 -39 -92 -74 -140 -97 -73 -34 -81 -36 -182 -36 -101
0 -108 1 -180 37 -51 25 -93 56 -128 93 -29 30 -54 55 -55 55 -2 0 -6 -33 -10
-72 -4 -40 -13 -104 -22 -143 -8 -38 -17 -82 -20 -97 -6 -24 -1 -29 67 -61
267 -128 572 -67 787 156 34 36 62 70 62 76 0 8 -64 92 -109 143 -3 3 -35 -21
-70 -54z"/>
<path d="M822 1323 c-16 -27 -60 -97 -96 -157 -78 -126 -84 -109 69 -185 180
-90 363 -131 579 -131 204 0 402 44 547 121 72 39 189 134 189 155 0 37 -166
244 -196 244 -8 0 -14 -8 -14 -17 0 -23 -35 -80 -63 -105 -61 -52 -172 -86
-306 -95 -186 -12 -442 64 -619 182 -30 19 -55 35 -57 35 -2 0 -16 -21 -33
-47z"/>
<path d="M2147 890 c-3 -14 -12 -59 -19 -100 l-13 -75 -100 -16 c-55 -9 -98
-18 -95 -19 3 -1 48 -10 100 -19 l95 -16 13 -75 c22 -126 23 -128 32 -105 4
11 11 47 15 79 12 103 11 102 119 116 53 8 96 17 96 20 0 4 -43 13 -96 20
-108 14 -107 13 -119 116 -4 32 -11 68 -15 79 -7 19 -8 18 -13 -5z"/>
</g>
</svg>
