<?xml version="1.0" encoding="UTF-8"?>
<!DOCTYPE svg PUBLIC "-//W3C//DTD SVG 1.1//EN" "http://www.w3.org/Graphics/SVG/1.1/DTD/svg11.dtd">
<!-- Creator: CorelDRAW -->
<svg xmlns="http://www.w3.org/2000/svg" xml:space="preserve" width="5.71294in" height="1.52003in" version="1.1" style="shape-rendering:geometricPrecision; text-rendering:geometricPrecision; image-rendering:optimizeQuality; fill-rule:evenodd; clip-rule:evenodd"
viewBox="0 0 5712.94 1520.03"
 xmlns:xlink="http://www.w3.org/1999/xlink">
 <defs>
  <style type="text/css">
   <![CDATA[
    .fil1 {fill:#232323}
    .fil2 {fill:black;fill-rule:nonzero}
    .fil0 {fill:#232323;fill-rule:nonzero}
   ]]>
  </style>
 </defs>
 <g id="Layer_x0020_1">
  <metadata id="CorelCorpID_0Corel-Layer"/>
  <g id="_1WF">
   <path class="fil0" d="M1219.5 1299.11c-110.87,101 -253.48,161.79 -409.1,161.79 -353.07,0 -639.28,-312.73 -639.28,-698.44 0,-218.48 91.81,-413.49 235.61,-541.57 110.86,-100.97 253.47,-161.75 409.07,-161.75 353.08,0 639.26,312.69 639.26,698.43 0,218.45 -91.79,413.46 -235.57,541.54zm-944.43 6.08l-0.04 0 0 -7.85 26.34 -26.4 6.18 0c3.33,3.77 6.58,7.56 10.02,11.31 7.33,7.89 14.89,15.53 22.44,22.94l-64.94 0zm-78.53 -68.14l0 -7.89 26.36 -26.34 30.91 0c8.06,11.68 16.57,23.09 25.34,34.23l-82.62 0zm-54.21 -68.16l0 -7.87 26.35 -26.36 43.89 0c6.2,11.56 12.62,23.03 19.44,34.23l-89.67 0 -0.02 0zm-44.03 -68.14l0 -7.89 26.4 -26.38 55.88 0c4.74,11.56 9.72,23 14.99,34.27l-97.27 0zm-30.11 -76.07l26.36 -26.33 62.04 0c3.43,11.53 7.14,22.94 11.09,34.2l-99.5 0 0 -7.87zm-24.21 -60.23l0 -7.93 26.33 -26.33 69.37 0c2.31,11.53 4.81,22.94 7.69,34.26l-103.35 0 -0.04 0zm-16.7 -76.07l26.4 -26.38 0 -0.02 75.59 0c1.23,11.51 2.75,22.92 4.48,34.25l-106.47 0 0 -7.85zm-10.79 -68.15l26.34 -26.31 82.11 0c0.23,11.43 0.69,22.86 1.48,34.2l-109.72 0 -0.21 -7.89zm-0.19 -68.26l23.28 -26.17 86.93 0c-0.75,11.35 -1.27,22.74 -1.5,34.21l-110.32 0 1.62 -8.04zm2.15 -68.08l26.37 -26.34 89.02 0c-1.75,11.35 -3.24,22.72 -4.46,34.25l-110.93 0 -0.02 0 0 -7.91zm9.64 -68.12l26.38 -26.35 89.25 0 2.9 2.87c-2.52,10.39 -4.79,20.84 -6.81,31.35l-111.72 0 0 -7.87zm17.7 -68.14l26.4 -26.38 89.26 0 4.35 4.37c-3.31,9.84 -6.42,19.84 -9.33,29.87l-110.67 0 0 -7.87zm25.3 -68.19l26.34 -26.36 89.25 0 5.27 5.31c-4.19,9.53 -8.2,19.17 -12.1,28.92l-108.76 0 0 -7.87zm28.92 -68.17l26.34 -26.35 89.23 0 8.85 8.85c-4.69,8.37 -9.24,16.84 -13.62,25.4l-110.8 0 0 -7.89zm35.87 -68.12l26.38 -26.33 89.23 0 13.14 13.09c-4.87,6.93 -9.64,13.97 -14.32,21.13l-114.43 0 0 -7.89zm52.53 -70.3l26.31 -26.4 89.27 0 14.8 14.8c-5.72,6.35 -11.24,12.89 -16.63,19.49l-113.76 0 0 -7.89zm70.97 -68.2l26.34 -26.34 89.25 0 14.07 14.1c-7.68,6.52 -15.19,13.3 -22.63,20.17l-107.03 0 0 -7.93zm93.65 -68.1l26.36 -26.38 89.23 0 14.72 14.68c-10.47,6.24 -20.76,12.78 -30.91,19.59l-99.39 0 0 -7.89zm129.37 -70.49l79.28 1.77 14.68 6.35c-10.43,6.29 -35.08,6.73 -45.2,13.52l-85.05 -1.77 36.29 -19.86zm833.93 149.48c-128.56,-138.18 -300.13,-214.23 -481.67,-214.23l-1.69 0c-15.61,-1.46 -32.69,-1.67 -52.13,-0.77 -16.26,0.77 -32.52,1.31 -48.67,1.89 -96.89,3.37 -188.37,6.54 -278.87,44.43 -268.26,112.34 -450.39,395.57 -453.3,704.92l0.08 15.82c0,0 1.54,43.26 3.45,66.1l0.07 0c12.26,132.74 57.11,258.51 129.83,363.76 56.46,81.84 130.6,151.44 214.9,201.65l38.39 21.28 2.93 2.58 2.23 -0.29c28.44,14.05 57.31,25.81 85.8,35.04 65.17,21.15 102.79,30.08 152.35,39.85 55.03,14.91 112.01,22.46 169.41,22.46 7.62,0 15.35,-0.09 23.02,-0.38 113.66,-3.98 226.54,-38.3 326.78,-99.45l35.5 -23.19c210.67,-146.59 335.28,-393.42 333.21,-660.22 -1.48,-198.14 -73.09,-383.26 -201.61,-521.25z"/>
   <polygon class="fil1" points="961.48,1114.93 975.61,1202.79 1063.45,1216.89 975.61,1231 961.48,1318.86 947.36,1231 859.52,1216.89 947.36,1202.79 "/>
   <path class="fil1" d="M841.34 660.15c0,0 -0.83,3.27 -1.33,7.22 29.98,15.22 57.15,32.52 83.03,54.05 12.8,10.64 24.87,22.15 36.47,34.19 -0.69,-6.06 -1.6,-11.87 -1.83,-18.3 0.11,0.08 0.25,0.17 0.33,0.27 -0.08,-1.41 -0.17,-2.77 -0.17,-4.18 0.17,-68.69 27.06,-128.13 69.6,-168.28 40.87,-38.62 95.6,-58.67 154.02,-53.09 56.3,5.39 111.76,39.39 149.57,88.42 15.82,-22.76 31.27,-45.2 46.72,-67.27 -23.94,-29.67 -53.88,-55.23 -87.13,-74.74 -34.2,-20.09 -72.41,-34 -111.86,-39.35 -76.99,-10.45 -151.06,7.85 -211.36,49.52 -61.94,42.81 -107.7,109.68 -126.06,191.54z"/>
   <path class="fil1" d="M538.2 745.41c84.8,32.93 181.52,45.25 244.23,71.07 13.7,5.62 24.4,10.76 33.22,15.84 2.54,1.52 5.04,3.35 7.54,5.29 -0.2,-19.03 -0.89,-38.06 -2.56,-56.96 -2.56,-29.78 -7.35,-59.54 -13.43,-88.95 -20.46,-6.87 -41.26,-13.43 -62,-19.68 -94.89,-28.61 -182.96,-57.06 -181.3,-131.6 1.19,-53.17 59.67,-76.94 144.05,-69.09 45.63,4.24 103.06,20.17 161.87,49.43 23.5,-32.15 51.71,-59.17 83.29,-80.51 -61.58,-40.65 -143.61,-73.45 -232.79,-85.61 -91.83,-12.53 -174.53,-2.7 -235.95,28.19 -64.12,32.27 -103.74,86.78 -106.09,159.02 -3.62,111.7 70.22,168.74 159.91,203.57z"/>
   <path class="fil1" d="M940.7 1017.2c-13.26,-24.53 -29.06,-46.47 -47.28,-67.6 -12.37,-14.39 -26.19,-27.46 -40.6,-39.91 -0.67,5.75 -1.87,11.68 -3.83,17.89 -14.51,42.93 -65.93,71.74 -147.77,80.01 -95.06,9.62 -216.64,-21.9 -319.74,-95.69 -27.35,44.64 -55.44,90.13 -83.67,136.61 55.19,36.54 120.9,63.84 191.25,78.85 67.12,14.32 138.03,17.51 207.74,7.29 104.05,-15.26 185.6,-53.91 235.04,-107.24 -0.1,-0.1 4.4,-4.33 8.87,-10.2z"/>
   <path class="fil1" d="M1336.1 873.28c-38.41,47.5 -93.33,81.49 -149.98,87.23 -68.61,6.95 -132.22,-21.59 -175.28,-73.97 -2.2,-2.69 -5.33,-7.06 -8.87,-12.47 -0.31,15.2 -1.1,30.35 -2.69,45.43 -3.6,34.25 -10.66,68.08 -20.67,100.93 9.72,6.35 19.72,12.22 30.11,17.32 52.42,25.82 112.05,35.56 173.34,26.57 40.79,-6 80.37,-22.03 115.72,-44.89 34.18,-22.13 64.77,-50.91 89.11,-83.49 -16.87,-20.59 -33.81,-41.41 -50.78,-62.66z"/>
   <path class="fil1" d="M841.12 704.69c5.81,24.96 10.95,53.11 14.36,84.08 2.75,24.76 4.02,47.95 4.29,69.25 15.86,13.32 34.62,31.35 52.98,54.88 18.8,24.04 31.96,47.06 41.11,65.98 5.96,-20.99 11.7,-48.72 12.89,-81.61 1.37,-36.66 -3.33,-67.64 -8.56,-90.35 -12.94,-17.11 -30.56,-37.39 -53.81,-57.6 -22.77,-19.82 -44.82,-34.23 -63.27,-44.62z"/>
  </g>
  <g id="_1WT">
   <path class="fil0" d="M2050.1 267.93c-11.06,-12.43 -26.38,-23.09 -45.84,-31.96 -19.44,-8.91 -40.1,-13.37 -61.9,-13.37 -29.87,0 -53.71,7.39 -71.47,22.17 -17.84,14.78 -26.75,32.04 -26.75,51.82 0,18.16 6.45,33.85 19.41,47.12 12.91,13.24 29.12,23.07 48.63,29.44l103.72 28.73c24.81,7.39 45.09,20.3 60.9,38.75 15.76,18.46 23.65,41.63 23.65,69.47 0,31.23 -13.26,58.27 -39.76,81.07 -26.52,22.86 -62.79,34.27 -108.78,34.27 -37.25,0 -69.89,-8.33 -97.94,-24.9 -28,-16.66 -49.76,-37.87 -65.17,-63.71l32.73 -20.68c14.03,22.84 33.1,40.46 57.13,52.88 24,12.41 48.09,18.61 72.24,18.61 36.96,0 64.73,-8.04 83.38,-24.15 18.59,-16.13 27.94,-34.42 27.94,-54.88 0,-17.16 -5.52,-32.15 -16.38,-45.07 -10.89,-12.93 -26.11,-21.93 -45.59,-26.94l-97.16 -27.71c-28.19,-9.04 -51.36,-23.33 -69.47,-42.78 -18.15,-19.47 -27.21,-42.79 -27.21,-69.98 0,-30.25 12.45,-56.32 37.27,-78.32 24.83,-21.96 57.71,-32.98 98.7,-32.98 31.23,0 58.87,5.96 83.05,17.89 24.22,11.91 43.83,26.41 58.94,43.55l-34.25 21.65z"/>
   <polygon class="fil0" points="2319.96,612.84 2282.22,612.84 2282.22,197.44 2319.96,197.44 "/>
   <polygon class="fil0" points="2718.76,491.99 2559.11,270.95 2559.11,612.84 2521.39,612.84 2521.39,197.44 2552.57,197.44 2735.37,450.2 2917.16,197.44 2949.35,197.44 2949.35,612.84 2911.58,612.84 2911.58,269.93 2751.96,491.99 "/>
   <path class="fil0" d="M3295.78 235.19l-107.22 0 0 239.15 107.22 0c32.87,0 61.02,-11.66 84.35,-34.98 23.32,-23.32 34.96,-51.61 34.96,-84.86 0,-32.88 -11.64,-60.98 -34.96,-84.32 -23.33,-23.31 -51.48,-35 -84.35,-35zm-144.99 -37.76l144.99 0c43.32,0 80.3,15.34 111.01,46.05 30.75,30.75 46.09,67.74 46.09,111.03 0,43.65 -15.34,80.82 -46.09,111.53 -30.71,30.75 -67.69,46.11 -111.01,46.11l-107.22 0 0 100.68 -37.77 0 0 -415.4z"/>
   <polygon class="fil0" points="3629.11,197.44 3666.83,197.44 3666.83,575.08 3868.25,575.08 3868.25,612.84 3629.11,612.84 "/>
   <polygon class="fil0" points="4044.49,612.84 4006.76,612.84 4006.76,197.44 4044.49,197.44 "/>
   <path class="fil0" d="M4571.65 532.77l28.19 25.17c-0.98,1 -2,2 -3.02,3.04 -42.97,42.98 -94.83,64.44 -155.54,64.44 -61.11,0 -113.09,-21.46 -156.1,-64.44 -42.95,-42.97 -64.43,-95.01 -64.43,-156.12 0,-60.71 21.48,-112.59 64.43,-155.56 43.01,-42.97 95,-64.46 156.1,-64.46 60.71,0 112.57,21.49 155.54,64.46 1.69,1.7 3.21,3.2 4.58,4.54l-27.19 26.19c-1.33,-1.35 -2.7,-2.73 -4.04,-4.04 -35.58,-35.56 -78.57,-53.36 -128.89,-53.36 -50.74,0 -93.83,17.8 -129.43,53.36 -35.58,35.58 -53.36,78.51 -53.36,128.87 0,50.71 17.78,93.83 53.36,129.43 35.6,35.58 78.7,53.36 129.43,53.36 50.32,0 93.31,-17.78 128.89,-53.36 0.33,-0.34 0.83,-0.85 1.48,-1.52z"/>
   <polygon class="fil0" points="4812.37,612.84 4774.62,612.84 4774.62,197.44 4812.37,197.44 "/>
   <polygon class="fil0" points="5083.24,235.19 4963.41,235.19 4963.41,197.43 5240.35,197.43 5240.35,235.19 5120.96,235.19 5120.96,612.83 5083.24,612.83 "/>
   <polygon class="fil0" points="5498.61,612.83 5498.61,462.28 5345.55,197.43 5389.39,197.43 5517.76,419.48 5645.66,197.43 5689.44,197.43 5536.42,462.28 5536.42,612.83 "/>
   <path class="fil0" d="M1986.65 1046.26c41.99,0 75.78,-16.36 102.49,-49.61l54.51 56.13c-43.06,48.53 -94.29,73.06 -152.63,73.06 -58.88,0 -107.39,-18.53 -145.01,-55.61 -38.17,-37.06 -57.23,-83.94 -57.23,-140.63 0,-56.15 19.61,-103.56 58.33,-141.18 38.68,-37.59 85.57,-56.69 141.72,-56.69 62.69,0 115.02,23.98 157,71.41l-52.88 59.96c-26.71,-33.27 -60.5,-50.15 -100.31,-50.15 -32.17,0 -59.4,10.37 -81.76,31.06 -22.88,21.28 -34.35,49.07 -34.35,84.51 0,35.43 10.91,64.33 32.17,85.58 21.26,21.26 47.43,32.17 77.95,32.17z"/>
   <path class="fil0" d="M2467.31 928.5c0,-33.79 -10.89,-62.69 -32.69,-86.67 -21.82,-23.98 -48.53,-35.98 -80.15,-35.98 -32.17,0 -58.85,11.99 -80.67,35.98 -21.8,23.98 -32.71,52.88 -32.71,86.67 0,34.33 10.91,63.22 32.71,86.67 21.82,23.98 48.5,35.99 80.67,35.99 31.63,0 58.33,-12.01 80.15,-35.99 21.8,-23.45 32.69,-52.34 32.69,-86.67zm28.89 140.09c-38.7,37.63 -86.13,56.69 -142.27,56.69 -56.15,0 -103.57,-19.07 -142.26,-56.69 -38.72,-37.6 -57.8,-83.94 -57.8,-140.09 0,-56.13 19.07,-103.02 57.8,-140.64 38.69,-37.61 86.11,-56.14 142.26,-56.14 56.15,0 103.57,18.53 142.27,56.14 38.71,37.62 57.78,84.51 57.78,140.64 0,56.15 -19.07,102.49 -57.78,140.09z"/>
   <polygon class="fil0" points="2865.69,740.44 2950.73,740.44 2950.73,1121.49 2865.69,1121.49 2684.16,882.71 2684.16,1121.49 2599.11,1121.49 2599.11,740.44 2678.73,740.44 2865.69,985.73 "/>
   <path class="fil0" d="M3140.32 806.39c-14.17,0 -25.06,3.27 -33.26,9.83 -8.17,7.07 -12.51,15.8 -12.51,26.71 0,11.45 4.89,20.17 15.24,26.71 9.83,6.54 32.71,14.17 69.25,22.9 35.98,9.25 63.77,22.34 83.96,40.33 20.15,17.96 29.96,43.61 29.96,77.94 0,34.35 -12.54,61.58 -38.17,82.86 -25.61,21.26 -59.4,32.17 -101.39,32.17 -60.5,0 -114.46,-22.34 -162.98,-67.06l50.68 -62.13c40.89,35.95 79.05,53.94 113.94,53.94 15.8,0 27.79,-3.27 37.06,-10.35 8.72,-6.54 13.07,-15.8 13.07,-27.25 0,-11.45 -4.9,-20.17 -14.16,-27.27 -9.26,-6.52 -28.35,-13.08 -56.15,-20.15 -44.15,-10.37 -76.86,-24.53 -97.04,-41.43 -20.71,-16.88 -31.06,-43.06 -31.06,-79.59 0,-35.98 13.1,-63.77 39.25,-83.39 25.62,-19.62 58.31,-29.44 97.04,-29.44 25.61,0 50.67,4.37 76.32,13.09 25.61,8.72 47.41,21.26 66.5,37.06l-43.07 62.14c-33.25,-25.06 -67.04,-37.62 -102.48,-37.62z"/>
   <path class="fil0" d="M3439.46 1022.81c14.18,17.97 33.28,26.69 57.23,26.69 23.98,0 43.06,-8.72 57.26,-26.69 13.61,-17.44 20.69,-41.43 20.69,-71.97l0 -210.4 85.05 0 0 213.15c0,55.04 -15.26,97.56 -45.78,127 -30.54,29.98 -69.79,44.7 -117.22,44.7 -47.41,0 -86.67,-14.72 -117.19,-44.7 -31.06,-29.98 -46.32,-71.95 -46.32,-127l0 -213.15 85.02 0 0 210.4c0,30.54 7.08,54.52 21.26,71.97z"/>
   <polygon class="fil0" points="3721.17,1121.48 3721.17,740.43 3806.21,740.43 3806.21,1045.7 3968.67,1045.7 3968.67,1121.48 "/>
   <polygon class="fil0" points="4131.47,814.04 4131.47,1121.49 4046.44,1121.49 4046.44,814.04 3938.5,814.04 3938.5,740.44 4239.42,740.44 4239.42,814.04 "/>
   <path class="fil0" d="M4403.35 853.82l-47.97 110.65 95.39 0 -47.43 -110.65zm115 267.65l-35.41 -82.32 -159.72 0 -35.43 82.32 -90.48 0 164.62 -381.03 82.32 0 164.62 381.03 -90.5 0z"/>
   <polygon class="fil0" points="4892.76,740.44 4977.78,740.44 4977.78,1121.49 4892.76,1121.49 4711.22,882.71 4711.22,1121.49 4626.19,1121.49 4626.19,740.44 4705.78,740.44 4892.76,985.73 "/>
   <path class="fil0" d="M5219.73 1046.26c41.97,0 75.76,-16.36 102.47,-49.61l54.5 56.13c-43.05,48.53 -94.29,73.06 -152.62,73.06 -58.87,0 -107.39,-18.53 -145.01,-55.61 -38.16,-37.06 -57.23,-83.94 -57.23,-140.63 0,-56.15 19.61,-103.56 58.33,-141.18 38.69,-37.59 85.57,-56.69 141.72,-56.69 62.69,0 115.03,23.98 157.01,71.41l-52.9 59.96c-26.71,-33.27 -60.5,-50.15 -100.28,-50.15 -32.17,0 -59.42,10.37 -81.78,31.06 -22.88,21.28 -34.33,49.07 -34.33,84.51 0,35.43 10.89,64.33 32.16,85.58 21.24,21.26 47.41,32.17 77.95,32.17z"/>
   <polygon class="fil0" points="5581.01,1121.48 5495.99,1121.48 5495.99,971.02 5364.06,740.43 5456.18,740.43 5538.5,882.17 5620.8,740.43 5712.94,740.43 5581.01,971.02 "/>
   <polygon class="fil2" points="1792.38,1232.62 1792.38,1245.07 1830.72,1245.07 1830.72,1350.35 1844.18,1350.35 1844.18,1245.07 1882.69,1245.07 1882.69,1232.62 "/>
   <path id="1" class="fil2" d="M2086.59 1232.29c-34.48,0 -61.72,26.07 -61.72,59.2 0,33.13 27.24,59.37 61.72,59.37 34.31,0 61.55,-26.24 61.55,-59.37 0,-33.13 -27.24,-59.2 -61.55,-59.2zm0 12.44c26.24,0 47.76,20.69 47.76,46.75 0,26.07 -21.52,47.09 -47.76,47.09 -26.24,0 -48.1,-21.02 -48.1,-47.09 0,-26.07 21.86,-46.75 48.1,-46.75z"/>
   <polygon id="2" class="fil2" points="2410.24,1350.35 2359.95,1283.92 2406.7,1232.62 2390.73,1232.62 2327.49,1301.07 2327.49,1232.62 2314.04,1232.62 2314.04,1350.35 2327.49,1350.35 2327.49,1319.57 2350.37,1294.34 2393.76,1350.35 "/>
   <polygon id="3" class="fil2" points="2572.93,1232.62 2572.93,1350.35 2655,1350.35 2655,1337.9 2586.39,1337.9 2586.39,1296.87 2645.75,1296.87 2645.75,1284.59 2586.39,1284.59 2586.39,1245.07 2652.82,1245.07 2652.82,1232.62 "/>
   <polygon id="4" class="fil2" points="2823.76,1232.62 2823.76,1350.35 2837.21,1350.35 2837.21,1254.82 2907.85,1350.35 2921.63,1350.35 2921.63,1232.62 2908.35,1232.62 2908.35,1328.31 2837.72,1232.62 "/>
   <polygon id="5" class="fil2" points="3275.38,1232.62 3275.38,1350.35 3357.45,1350.35 3357.45,1337.9 3288.83,1337.9 3288.83,1296.87 3348.2,1296.87 3348.2,1284.59 3288.83,1284.59 3288.83,1245.07 3355.27,1245.07 3355.27,1232.62 "/>
   <path id="6" class="fil2" d="M3611.47 1259.19l8.07 -9.75c-11.27,-10.59 -26.91,-17.15 -43.06,-17.15 -34.14,0 -61.38,26.07 -61.38,59.03 0,33.3 26.91,59.54 60.88,59.54 16.31,0 32.12,-6.89 43.73,-17.83l-8.24 -8.91c-9.25,8.74 -21.87,14.13 -34.81,14.13 -26.57,0 -47.93,-21.02 -47.93,-46.92 0,-26.07 21.36,-46.75 47.93,-46.75 12.95,0 25.73,5.55 34.81,14.63z"/>
   <path id="7" class="fil2" d="M3833.03 1232.29c-34.48,0 -61.72,26.07 -61.72,59.2 0,33.13 27.24,59.37 61.72,59.37 34.31,0 61.55,-26.24 61.55,-59.37 0,-33.13 -27.24,-59.2 -61.55,-59.2zm0 12.44c26.24,0 47.76,20.69 47.76,46.75 0,26.07 -21.52,47.09 -47.76,47.09 -26.24,0 -48.1,-21.02 -48.1,-47.09 0,-26.07 21.86,-46.75 48.1,-46.75z"/>
   <polygon id="8" class="fil2" points="4060.48,1232.62 4060.48,1350.35 4073.93,1350.35 4073.93,1254.82 4144.57,1350.35 4158.35,1350.35 4158.35,1232.62 4145.07,1232.62 4145.07,1328.31 4074.44,1232.62 "/>
   <path id="9" class="fil2" d="M4386.14 1232.29c-34.48,0 -61.72,26.07 -61.72,59.2 0,33.13 27.24,59.37 61.72,59.37 34.31,0 61.55,-26.24 61.55,-59.37 0,-33.13 -27.24,-59.2 -61.55,-59.2zm0 12.44c26.24,0 47.76,20.69 47.76,46.75 0,26.07 -21.52,47.09 -47.76,47.09 -26.24,0 -48.1,-21.02 -48.1,-47.09 0,-26.07 21.86,-46.75 48.1,-46.75z"/>
   <polygon id="10" class="fil2" points="4613.58,1232.62 4613.58,1350.35 4626.36,1350.35 4626.36,1252.47 4669.11,1337.9 4677.21,1337.9 4720.12,1252.47 4720.29,1350.35 4732.65,1350.35 4732.65,1232.62 4716.26,1232.62 4673.31,1318.06 4630.23,1232.62 "/>
   <polygon id="11" class="fil2" points="4909.81,1232.62 4909.81,1350.35 4923.26,1350.35 4923.26,1232.62 "/>
   <path id="12" class="fil2" d="M5166.85 1254.99l5.72 -11.94c-9.75,-6.56 -23.71,-10.93 -37.33,-10.93 -24.39,0 -40.7,11.77 -40.7,30.27 0,42.21 66.26,25.56 66.09,57.01 0,11.44 -10.59,18.33 -27.58,18.33 -13.29,0 -28.26,-6.06 -39.19,-16.48l-6.06 11.6c11.1,10.6 27.92,18 45.07,18 25.23,0 42.55,-12.61 42.55,-32.12 0.17,-42.72 -66.09,-26.74 -66.09,-57.35 0,-10.09 9.92,-16.15 25.06,-16.15 9.42,0 21.86,2.86 32.46,9.75z"/>
   <polygon id="13" class="fil2" points="5328.37,1232.62 5328.37,1245.07 5366.72,1245.07 5366.72,1350.35 5380.17,1350.35 5380.17,1245.07 5418.69,1245.07 5418.69,1232.62 "/>
   <path id="14" class="fil2" d="M5646.13 1254.99l5.72 -11.94c-9.75,-6.56 -23.71,-10.93 -37.33,-10.93 -24.39,0 -40.7,11.77 -40.7,30.27 0,42.21 66.26,25.56 66.09,57.01 0,11.44 -10.59,18.33 -27.58,18.33 -13.29,0 -28.26,-6.06 -39.19,-16.48l-6.06 11.6c11.1,10.6 27.92,18 45.07,18 25.23,0 42.55,-12.61 42.55,-32.12 0.17,-42.72 -66.09,-26.74 -66.09,-57.35 0,-10.09 9.92,-16.15 25.06,-16.15 9.42,0 21.86,2.86 32.46,9.75z"/>
  </g>
 </g>
</svg>
