<svg xmlns="http://www.w3.org/2000/svg" xmlns:xlink="http://www.w3.org/1999/xlink" version="1.1" style="shape-rendering:geometricPrecision; text-rendering:geometricPrecision; image-rendering:optimizeQuality; fill-rule:evenodd; clip-rule:evenodd" viewBox="627.29 222.5 2848.21 1022">
<g><path style="opacity:0.965" fill="#222322" d="M 991.5,222.5 C 1128.12,226.052 1237.28,282.052 1319,390.5C 1381.76,479.606 1403.42,577.939 1384,685.5C 1372.53,739.108 1349.36,786.775 1314.5,828.5C 1418.01,932.847 1521.35,1037.35 1624.5,1142C 1621.36,1167.08 1612.53,1189.92 1598,1210.5C 1579.26,1230.62 1556.1,1241.78 1528.5,1244C 1521.83,1244.67 1515.17,1244.67 1508.5,1244C 1406.99,1138.99 1305.32,1034.15 1203.5,929.5C 1113.81,985.195 1017.81,999.361 915.5,972C 796.909,936.404 711.409,862.571 659,750.5C 628.141,680.771 619.808,608.438 634,533.5C 640.371,506.424 650.371,480.758 664,456.5C 684.582,419.655 706.915,383.989 731,349.5C 785.645,281.241 856.478,240.407 943.5,227C 959.587,224.757 975.587,223.257 991.5,222.5 Z M 989.5,257.5 C 1115.32,259.164 1216.82,309.164 1294,407.5C 1356.27,493.186 1375.94,587.852 1353,691.5C 1323.04,791.46 1258.88,858.96 1160.5,894C 1040.07,928.875 929.739,908.875 829.5,834C 729.015,753.834 682.848,649.334 691,520.5C 706.486,415.287 761.319,338.453 855.5,290C 898.072,270.057 942.738,259.223 989.5,257.5 Z M 648.5,551.5 C 647.989,544.958 648.822,538.624 651,532.5C 657.725,523.44 664.058,514.107 670,504.5C 671.815,502.595 673.815,500.928 676,499.5C 674.008,507.183 671.674,514.849 669,522.5C 662.145,532.233 655.311,541.9 648.5,551.5 Z M 1080.5,533.5 C 1098.17,533.333 1115.84,533.5 1133.5,534C 1170.63,535.785 1186.46,554.951 1181,591.5C 1177.39,603.446 1169.89,611.946 1158.5,617C 1151.43,619.814 1144.1,621.481 1136.5,622C 1117.83,622.517 1099.16,622.351 1080.5,621.5C 1080.5,592.167 1080.5,562.833 1080.5,533.5 Z M 668.5,551.5 C 669.833,551.5 671.167,551.5 672.5,551.5C 672.666,557.509 672.499,563.509 672,569.5C 663.649,582.883 654.815,595.883 645.5,608.5C 644.029,607.619 643.196,606.286 643,604.5C 642.21,599.541 641.043,594.708 639.5,590C 647.697,577.969 655.697,565.802 663.5,553.5C 665.291,552.83 666.958,552.163 668.5,551.5 Z M 672.5,608.5 C 673.5,608.5 674.5,608.5 675.5,608.5C 676.521,613.473 677.021,618.473 677,623.5C 667.735,637.71 658.235,651.71 648.5,665.5C 647.029,664.619 646.196,663.286 646,661.5C 644.543,656.227 643.876,650.894 644,645.5C 651.333,634.167 658.667,622.833 666,611.5C 668.166,610.269 670.333,609.269 672.5,608.5 Z M 681.5,656.5 C 682.978,656.238 684.311,656.571 685.5,657.5C 686.879,661.116 687.713,664.783 688,668.5C 678.167,683.5 668.333,698.5 658.5,713.5C 656.833,713.167 655.833,712.167 655.5,710.5C 653.943,704.893 653.11,699.226 653,693.5C 660.333,682.167 667.667,670.833 675,659.5C 677.045,658.074 679.212,657.074 681.5,656.5 Z M 695.5,697.5 C 696.978,697.238 698.311,697.571 699.5,698.5C 701.798,701.891 702.965,705.558 703,709.5C 693.248,724.672 683.248,739.672 673,754.5C 669.473,748.391 667.806,741.725 668,734.5C 675.333,723.167 682.667,711.833 690,700.5C 691.719,699.131 693.552,698.131 695.5,697.5 Z M 710.5,731.5 C 712.288,731.215 713.955,731.548 715.5,732.5C 717.626,735.919 719.626,739.419 721.5,743C 711.611,757.957 701.611,772.79 691.5,787.5C 690.029,786.619 689.196,785.286 689,783.5C 687.955,778.601 686.788,773.768 685.5,769C 693.968,756.557 702.301,744.057 710.5,731.5 Z M 732.5,761.5 C 735.601,765.511 738.601,769.678 741.5,774C 732.209,788.082 723.042,802.248 714,816.5C 712.951,817.517 711.784,817.684 710.5,817C 708.452,810.978 707.285,804.812 707,798.5C 714.657,785.385 723.157,773.052 732.5,761.5 Z M 751.5,791.5 C 752.552,791.351 753.552,791.517 754.5,792C 757.13,795.632 760.13,798.965 763.5,802C 753.667,817.167 743.833,832.333 734,847.5C 732.615,846.449 731.615,845.116 731,843.5C 730.082,838.24 728.916,833.073 727.5,828C 735.883,816.062 743.883,803.895 751.5,791.5 Z M 775.5,816.5 C 779.677,819.844 783.344,823.677 786.5,828C 777.045,842.958 767.379,857.791 757.5,872.5C 756.522,872.023 755.689,871.357 755,870.5C 753.833,865.331 752.666,860.164 751.5,855C 759.379,842.071 767.379,829.238 775.5,816.5 Z M 800.5,840.5 C 804.773,843.434 808.773,846.767 812.5,850.5C 802.667,865.5 792.833,880.5 783,895.5C 781.26,894.284 780.26,892.618 780,890.5C 778.543,885.227 777.876,879.894 778,874.5C 785.33,863.013 792.83,851.68 800.5,840.5 Z M 1292.5,851.5 C 1304.25,861.743 1315.58,872.577 1326.5,884C 1294.5,894.167 1273.83,915.333 1264.5,947.5C 1251.82,935.786 1239.82,923.453 1228.5,910.5C 1251.08,892.255 1272.41,872.589 1292.5,851.5 Z M 826.5,861.5 C 831.159,864.168 835.492,867.335 839.5,871C 830.192,885.795 820.526,900.295 810.5,914.5C 809.201,913.91 808.368,912.91 808,911.5C 806.342,906.222 805.342,900.889 805,895.5C 812.417,884.265 819.584,872.932 826.5,861.5 Z M 854.5,880.5 C 859.176,882.836 863.509,885.67 867.5,889C 858.409,903.76 848.909,918.26 839,932.5C 837.701,931.91 836.868,930.91 836.5,929.5C 834.943,923.893 834.11,918.226 834,912.5C 841.093,901.975 847.927,891.308 854.5,880.5 Z M 883.5,897.5 C 888.701,899.098 893.701,901.265 898.5,904C 889.291,918.252 879.958,932.419 870.5,946.5C 869.522,946.023 868.689,945.357 868,944.5C 866.342,938.554 865.342,932.554 865,926.5C 871.417,916.932 877.583,907.265 883.5,897.5 Z M 1337.5,899.5 C 1339.2,899.34 1340.87,899.506 1342.5,900C 1407.73,965.807 1472.73,1031.81 1537.5,1098C 1503.82,1107.35 1481.66,1128.51 1471,1161.5C 1408,1096.5 1345,1031.5 1282,966.5C 1281.63,940.405 1292.8,920.905 1315.5,908C 1322.61,904.248 1329.94,901.415 1337.5,899.5 Z M 914.5,911.5 C 920.042,912.626 925.376,914.459 930.5,917C 921.694,930.79 912.527,944.29 903,957.5C 901.268,957.266 900.434,956.266 900.5,954.5C 898.847,948.908 898.014,943.241 898,937.5C 904.145,929.199 909.645,920.533 914.5,911.5 Z M 947.5,922.5 C 952.522,923.505 957.522,924.672 962.5,926C 962.957,926.414 963.291,926.914 963.5,927.5C 955,940.5 946.5,953.5 938,966.5C 936.701,965.91 935.868,964.91 935.5,963.5C 933.847,957.908 933.014,952.241 933,946.5C 938.107,938.611 942.941,930.611 947.5,922.5 Z M 1118.5,929.5 C 1119.98,929.238 1121.31,929.571 1122.5,930.5C 1118,937.5 1113.5,944.5 1109,951.5C 1108.16,953.007 1107,953.507 1105.5,953C 1103.04,946.725 1101.88,940.225 1102,933.5C 1107.61,932.211 1113.11,930.878 1118.5,929.5 Z M 982.5,930.5 C 988.266,931.238 993.933,932.405 999.5,934C 991.587,947.024 983.087,959.524 974,971.5C 973.228,971.355 972.561,971.022 972,970.5C 971.025,965.124 969.858,959.791 968.5,954.5C 973.174,946.483 977.841,938.483 982.5,930.5 Z M 1019.5,935.5 C 1025.53,935.836 1031.53,936.503 1037.5,937.5C 1030,949.167 1022.5,960.833 1015,972.5C 1013.67,971.833 1012.67,970.833 1012,969.5C 1010.91,964.313 1009.74,959.146 1008.5,954C 1012.56,948.042 1016.23,941.875 1019.5,935.5 Z M 1074.5,935.5 C 1075.98,935.238 1077.31,935.571 1078.5,936.5C 1072.2,946.635 1065.7,956.635 1059,966.5C 1057.29,967.925 1055.95,967.592 1055,965.5C 1053.5,959.854 1052.5,954.187 1052,948.5C 1054.62,944.752 1057.12,940.919 1059.5,937C 1064.68,936.826 1069.68,936.326 1074.5,935.5 Z M 1545.5,1114.5 C 1548.52,1114.34 1551.52,1114.5 1554.5,1115C 1562.17,1122.67 1569.83,1130.33 1577.5,1138C 1542.41,1145.09 1519.24,1165.59 1508,1199.5C 1500.97,1192.8 1494.3,1185.8 1488,1178.5C 1489.61,1150.87 1503.11,1131.37 1528.5,1120C 1534.14,1117.68 1539.8,1115.85 1545.5,1114.5 Z M 1524.5,1213.5 C 1525.78,1198.44 1531.78,1185.61 1542.5,1175C 1556.01,1162.42 1572.01,1155.58 1590.5,1154.5C 1583.57,1191.1 1561.57,1210.76 1524.5,1213.5 Z"/></g>
<g><path style="opacity:0.925" fill="#222322" d="M 870.5,330.5 C 871.525,330.897 871.692,331.563 871,332.5C 817.512,380.109 781.845,438.775 764,508.5C 751.609,572.882 762.276,633.215 796,689.5C 823.158,737.339 858.325,778.505 901.5,813C 980.671,869.851 1065,878.518 1154.5,839C 1165.08,834.128 1175.25,828.628 1185,822.5C 1186.72,822.611 1186.89,823.111 1185.5,824C 1084.94,889.304 984.943,888.638 885.5,822C 833.966,783.809 794.133,735.976 766,678.5C 735.437,605.231 736.104,532.231 768,459.5C 792.615,408.949 826.782,365.949 870.5,330.5 Z"/></g>
<g><path style="opacity:0.897" fill="#222322" d="M 1196.5,371.5 C 1197.12,371.611 1197.62,371.944 1198,372.5C 1199.51,382.574 1201.35,392.574 1203.5,402.5C 1213.54,405.142 1223.54,407.976 1233.5,411C 1224.57,412.989 1215.57,414.655 1206.5,416C 1205.07,416.465 1203.9,417.299 1203,418.5C 1201.44,428.184 1199.77,437.851 1198,447.5C 1197.59,447.957 1197.09,448.291 1196.5,448.5C 1194.24,438.925 1192.4,429.258 1191,419.5C 1189.83,418.333 1188.67,417.167 1187.5,416C 1181.83,415 1176.17,414 1170.5,413C 1166.91,412.439 1163.57,411.272 1160.5,409.5C 1168.72,407.397 1177.05,405.897 1185.5,405C 1187.33,404.727 1188.83,403.893 1190,402.5C 1192.23,392.208 1194.39,381.875 1196.5,371.5 Z"/></g>
<g><path style="opacity:0.981" fill="#222322" d="M 945.5,418.5 C 989.17,418.47 1032.84,418.804 1076.5,419.5C 1076.5,437.167 1076.5,454.833 1076.5,472.5C 1034.16,472.839 991.823,473.672 949.5,475C 921.652,480.529 911.485,497.029 919,524.5C 923.789,535.602 932.289,541.769 944.5,543C 977.812,546.994 1009.15,556.994 1038.5,573C 1056.98,585.425 1067.14,602.925 1069,625.5C 1075.35,668.008 1057.85,694.508 1016.5,705C 987.905,709.17 959.239,709.503 930.5,706C 902.873,702.85 877.54,693.683 854.5,678.5C 854.89,656.481 856.39,634.481 859,612.5C 878.637,638.58 904.804,653.746 937.5,658C 955.562,660.33 973.562,659.997 991.5,657C 998.724,654.721 1005.39,651.388 1011.5,647C 1021.2,632.48 1018.87,620.146 1004.5,610C 998.411,606.748 992.078,604.082 985.5,602C 960.167,595 934.833,588 909.5,581C 866.254,567.016 848.087,537.516 855,492.5C 861.821,464.673 877.988,444.173 903.5,431C 916.886,424.326 930.886,420.159 945.5,418.5 Z"/></g>
<g><path style="opacity:0.953" fill="#222322" d="M 1527.5,447.5 C 1549.27,445.776 1570.27,448.943 1590.5,457C 1596,459.245 1601,462.245 1605.5,466C 1603.04,471.763 1600.2,477.263 1597,482.5C 1574.32,468.565 1549.82,463.731 1523.5,468C 1507.64,470.205 1496.81,478.705 1491,493.5C 1487.7,506.934 1491.53,517.768 1502.5,526C 1509.12,529.809 1516.12,532.809 1523.5,535C 1542.45,539.403 1561.11,544.736 1579.5,551C 1610.44,564.128 1620.27,586.628 1609,618.5C 1599.25,635.977 1584.41,646.477 1564.5,650C 1530.9,656.4 1499.56,650.734 1470.5,633C 1467.59,630.914 1465.26,628.414 1463.5,625.5C 1465.8,619.56 1468.64,613.893 1472,608.5C 1500.19,631.807 1532.03,638.64 1567.5,629C 1589.59,619.992 1596.09,604.492 1587,582.5C 1580.2,575.184 1572.04,570.017 1562.5,567C 1546.21,562.511 1529.88,558.177 1513.5,554C 1469.1,540.368 1457.26,512.868 1478,471.5C 1491.44,457.082 1507.94,449.082 1527.5,447.5 Z"/></g>
<g><path style="opacity:0.953" fill="#222322" d="M 2817.5,447.5 C 2845.1,444.899 2870.43,451.066 2893.5,466C 2897.3,468.797 2900.8,471.964 2904,475.5C 2904.67,476.5 2904.67,477.5 2904,478.5C 2899.67,482.833 2895.33,487.167 2891,491.5C 2869.15,470.906 2843.31,463.406 2813.5,469C 2777.44,477.726 2755.61,500.226 2748,536.5C 2743.85,572.02 2756.35,599.853 2785.5,620C 2813.68,635.418 2842.35,636.418 2871.5,623C 2878.07,619.098 2884.07,614.431 2889.5,609C 2890.17,608.333 2890.83,608.333 2891.5,609C 2895.67,613.167 2899.83,617.333 2904,621.5C 2902.42,625.114 2899.92,628.281 2896.5,631C 2877.06,645.645 2855.06,652.812 2830.5,652.5C 2779.66,651.458 2745.83,627.124 2729,579.5C 2718.48,537.052 2728.98,500.885 2760.5,471C 2777.43,457.972 2796.43,450.139 2817.5,447.5 Z"/></g>
<g><path style="opacity:0.976" fill="#222322" d="M 1712.5,449.5 C 1719.83,449.5 1727.17,449.5 1734.5,449.5C 1734.5,516.5 1734.5,583.5 1734.5,650.5C 1727.17,650.5 1719.83,650.5 1712.5,650.5C 1712.5,583.5 1712.5,516.5 1712.5,449.5 Z"/></g>
<g><path style="opacity:0.964" fill="#222322" d="M 1847.5,449.5 C 1853.87,449.17 1860.2,449.504 1866.5,450.5C 1894.8,499.297 1923.3,547.963 1952,596.5C 1980.33,547.833 2008.67,499.167 2037,450.5C 2043.41,449.522 2049.91,449.189 2056.5,449.5C 2056.5,516.5 2056.5,583.5 2056.5,650.5C 2049.5,650.5 2042.5,650.5 2035.5,650.5C 2035.67,597.832 2035.5,545.166 2035,492.5C 2008.97,536.37 1983.13,580.37 1957.5,624.5C 1953.88,625.659 1950.21,625.825 1946.5,625C 1920.29,581.414 1894.46,537.58 1869,493.5C 1868.5,545.832 1868.33,598.166 1868.5,650.5C 1861.5,650.5 1854.5,650.5 1847.5,650.5C 1847.5,583.5 1847.5,516.5 1847.5,449.5 Z"/></g>
<g><path style="opacity:0.95" fill="#222322" d="M 2168.5,449.5 C 2199.5,449.333 2230.5,449.5 2261.5,450C 2288.17,452.07 2308.01,464.57 2321,487.5C 2326.23,501.706 2327.9,516.373 2326,531.5C 2321.14,557.033 2306.31,573.866 2281.5,582C 2275.93,583.715 2270.26,585.048 2264.5,586C 2240.19,587.394 2215.86,587.894 2191.5,587.5C 2191.5,608.5 2191.5,629.5 2191.5,650.5C 2183.83,650.5 2176.17,650.5 2168.5,650.5C 2168.5,583.5 2168.5,516.5 2168.5,449.5 Z M 2191.5,468.5 C 2212.84,468.333 2234.17,468.5 2255.5,469C 2293.48,473.643 2309.31,494.81 2303,532.5C 2295.34,554.276 2279.84,565.776 2256.5,567C 2234.84,567.5 2213.17,567.667 2191.5,567.5C 2191.5,534.5 2191.5,501.5 2191.5,468.5 Z"/></g>
<g><path style="opacity:0.973" fill="#222322" d="M 2425.5,449.5 C 2432.83,449.5 2440.17,449.5 2447.5,449.5C 2447.5,510.167 2447.5,570.833 2447.5,631.5C 2485.17,631.5 2522.83,631.5 2560.5,631.5C 2560.5,637.833 2560.5,644.167 2560.5,650.5C 2515.5,650.5 2470.5,650.5 2425.5,650.5C 2425.5,583.5 2425.5,516.5 2425.5,449.5 Z"/></g>
<g><path style="opacity:0.934" fill="#222322" d="M 2613.5,449.5 C 2621.17,449.5 2628.83,449.5 2636.5,449.5C 2636.5,516.5 2636.5,583.5 2636.5,650.5C 2628.83,650.5 2621.17,650.5 2613.5,650.5C 2613.5,583.5 2613.5,516.5 2613.5,449.5 Z"/></g>
<g><path style="opacity:0.976" fill="#222322" d="M 3014.5,449.5 C 3021.83,449.5 3029.17,449.5 3036.5,449.5C 3036.5,516.5 3036.5,583.5 3036.5,650.5C 3029.17,650.5 3021.83,650.5 3014.5,650.5C 3014.5,583.5 3014.5,516.5 3014.5,449.5 Z"/></g>
<g><path style="opacity:0.975" fill="#222322" d="M 3106.5,449.5 C 3160.83,449.5 3215.17,449.5 3269.5,449.5C 3269.5,455.833 3269.5,462.167 3269.5,468.5C 3245.83,468.5 3222.17,468.5 3198.5,468.5C 3198.5,529.167 3198.5,589.833 3198.5,650.5C 3191.17,650.5 3183.83,650.5 3176.5,650.5C 3176.5,589.833 3176.5,529.167 3176.5,468.5C 3153.17,468.5 3129.83,468.5 3106.5,468.5C 3106.5,462.167 3106.5,455.833 3106.5,449.5 Z"/></g>
<g><path style="opacity:0.954" fill="#222322" d="M 3293.5,450.5 C 3301.57,449.172 3309.74,449.172 3318,450.5C 3340.33,487.167 3362.67,523.833 3385,560.5C 3407.83,523.667 3430.67,486.833 3453.5,450C 3460.86,449.169 3468.19,449.335 3475.5,450.5C 3449.2,493.965 3422.7,537.299 3396,580.5C 3395.5,603.831 3395.33,627.164 3395.5,650.5C 3388.17,650.5 3380.83,650.5 3373.5,650.5C 3373.67,627.164 3373.5,603.831 3373,580.5C 3346.73,536.936 3320.23,493.603 3293.5,450.5 Z"/></g>
<g><path style="opacity:0.979" fill="#222322" d="M 1019.5,483.5 C 1062.5,483.822 1105.5,484.322 1148.5,485C 1178.95,486.477 1204.45,498.311 1225,520.5C 1240.5,541.629 1246.5,565.296 1243,591.5C 1238.45,623.935 1221.28,646.935 1191.5,660.5C 1210.56,687.559 1229.22,714.892 1247.5,742.5C 1231.3,746.339 1214.97,749.673 1198.5,752.5C 1177.01,725.501 1155.67,698.334 1134.5,671C 1116.17,670.5 1097.84,670.333 1079.5,670.5C 1079.5,697.5 1079.5,724.5 1079.5,751.5C 1059.17,751.5 1038.83,751.5 1018.5,751.5C 1018.5,739.833 1018.5,728.167 1018.5,716.5C 1051.07,713.432 1071.57,696.098 1080,664.5C 1081.81,643.529 1080.14,622.862 1075,602.5C 1065.4,575.901 1047.07,558.568 1020,550.5C 1019.5,528.169 1019.33,505.836 1019.5,483.5 Z M 1080.5,533.5 C 1080.5,562.833 1080.5,592.167 1080.5,621.5C 1099.16,622.351 1117.83,622.517 1136.5,622C 1144.1,621.481 1151.43,619.814 1158.5,617C 1169.89,611.946 1177.39,603.446 1181,591.5C 1186.46,554.951 1170.63,535.785 1133.5,534C 1115.84,533.5 1098.17,533.333 1080.5,533.5 Z"/></g>
<g><path style="opacity:0.976" fill="#222322" d="M 2040.5,712.5 C 2066.77,710.449 2092.1,714.282 2116.5,724C 2120.7,725.596 2124.37,727.929 2127.5,731C 2122.7,742.767 2117.53,754.267 2112,765.5C 2089.64,753.028 2065.81,748.528 2040.5,752C 2030.62,753.897 2023.79,759.397 2020,768.5C 2018.41,776.733 2021.24,782.899 2028.5,787C 2033.26,789.587 2038.26,791.587 2043.5,793C 2063.28,796.777 2082.61,802.11 2101.5,809C 2131.6,822.71 2142.1,845.543 2133,877.5C 2125.4,895.098 2112.57,907.264 2094.5,914C 2052.91,925.824 2012.91,921.824 1974.5,902C 1972,900.663 1970,898.829 1968.5,896.5C 1973.57,884.689 1978.91,873.022 1984.5,861.5C 2010.99,879.54 2039.99,885.706 2071.5,880C 2083.84,876.778 2089.34,868.945 2088,856.5C 2086.94,853.438 2085.11,850.938 2082.5,849C 2077,845.252 2071,842.585 2064.5,841C 2049.8,837.46 2035.13,833.793 2020.5,830C 1980.87,819.382 1966.03,794.215 1976,754.5C 1984.54,735.138 1999.04,722.638 2019.5,717C 2026.59,715.269 2033.59,713.769 2040.5,712.5 Z"/></g>
<g><path style="opacity:0.976" fill="#222322" d="M 3086.5,712.5 C 3116.28,709.285 3143.62,715.785 3168.5,732C 3174.51,736.679 3179.85,742.012 3184.5,748C 3175.02,757.98 3165.02,767.48 3154.5,776.5C 3132.7,753.05 3106.7,746.884 3076.5,758C 3048.98,772.874 3037.14,796.04 3041,827.5C 3046.74,857.902 3064.9,875.402 3095.5,880C 3119.18,882.158 3138.85,874.325 3154.5,856.5C 3164.48,865.316 3174.32,874.316 3184,883.5C 3184.67,884.5 3184.67,885.5 3184,886.5C 3161.64,910.016 3134.14,921.35 3101.5,920.5C 3056.58,920.807 3023.41,901.473 3002,862.5C 2992.62,841.011 2989.96,818.677 2994,795.5C 3002.89,755.272 3027.06,729.106 3066.5,717C 3073.26,715.285 3079.93,713.785 3086.5,712.5 Z"/></g>
<g><path style="opacity:0.979" fill="#222322" d="M 1473.5,715.5 C 1505.84,715.333 1538.17,715.5 1570.5,716C 1591.92,716.692 1610.92,723.692 1627.5,737C 1645.51,756.042 1652.01,778.542 1647,804.5C 1644.26,820.151 1636.76,832.985 1624.5,843C 1619.01,846.337 1613.68,849.837 1608.5,853.5C 1623.36,874.529 1638.03,895.696 1652.5,917C 1635.16,917.833 1617.82,917.666 1600.5,916.5C 1588.03,898.195 1575.36,880.029 1562.5,862C 1548.84,861.5 1535.17,861.333 1521.5,861.5C 1521.5,880.167 1521.5,898.833 1521.5,917.5C 1505.5,917.5 1489.5,917.5 1473.5,917.5C 1473.5,850.167 1473.5,782.833 1473.5,715.5 Z M 1521.5,754.5 C 1536.5,754.333 1551.5,754.5 1566.5,755C 1593.08,758.335 1603.92,773.169 1599,799.5C 1595.59,809.244 1589.09,816.077 1579.5,820C 1574.29,821.637 1568.95,822.637 1563.5,823C 1549.5,823.5 1535.5,823.667 1521.5,823.5C 1521.5,800.5 1521.5,777.5 1521.5,754.5 Z"/></g>
<g><path style="opacity:0.978" fill="#222322" d="M 1737.5,715.5 C 1788.5,715.5 1839.5,715.5 1890.5,715.5C 1890.5,728.167 1890.5,740.833 1890.5,753.5C 1855.5,753.5 1820.5,753.5 1785.5,753.5C 1785.5,767.833 1785.5,782.167 1785.5,796.5C 1816.5,796.5 1847.5,796.5 1878.5,796.5C 1878.5,808.833 1878.5,821.167 1878.5,833.5C 1847.5,833.5 1816.5,833.5 1785.5,833.5C 1785.5,848.833 1785.5,864.167 1785.5,879.5C 1821.83,879.5 1858.17,879.5 1894.5,879.5C 1894.5,892.167 1894.5,904.833 1894.5,917.5C 1842.17,917.5 1789.83,917.5 1737.5,917.5C 1737.5,850.167 1737.5,782.833 1737.5,715.5 Z"/></g>
<g><path style="opacity:0.981" fill="#222322" d="M 2220.5,715.5 C 2271.5,715.5 2322.5,715.5 2373.5,715.5C 2373.5,728.167 2373.5,740.833 2373.5,753.5C 2338.17,753.5 2302.83,753.5 2267.5,753.5C 2267.5,767.833 2267.5,782.167 2267.5,796.5C 2298.83,796.5 2330.17,796.5 2361.5,796.5C 2361.5,808.833 2361.5,821.167 2361.5,833.5C 2330.17,833.5 2298.83,833.5 2267.5,833.5C 2267.5,848.833 2267.5,864.167 2267.5,879.5C 2304.17,879.5 2340.83,879.5 2377.5,879.5C 2377.5,892.167 2377.5,904.833 2377.5,917.5C 2325.17,917.5 2272.83,917.5 2220.5,917.5C 2220.5,850.167 2220.5,782.833 2220.5,715.5 Z"/></g>
<g><path style="opacity:0.978" fill="#222322" d="M 2529.5,715.5 C 2545.41,715.175 2561.24,715.509 2577,716.5C 2606.74,783.208 2636.57,849.875 2666.5,916.5C 2649.83,917.833 2633.17,917.833 2616.5,916.5C 2610.64,902.914 2604.97,889.248 2599.5,875.5C 2568.5,874.167 2537.5,874.167 2506.5,875.5C 2501.03,889.248 2495.36,902.914 2489.5,916.5C 2473.17,917.833 2456.83,917.833 2440.5,916.5C 2470.45,849.596 2500.12,782.596 2529.5,715.5 Z M 2552.5,763.5 C 2563.4,788.193 2573.74,813.193 2583.5,838.5C 2563.17,838.5 2542.83,838.5 2522.5,838.5C 2532.5,813.5 2542.5,788.5 2552.5,763.5 Z"/></g>
<g><path style="opacity:0.979" fill="#222322" d="M 2740.5,715.5 C 2772.84,715.333 2805.17,715.5 2837.5,716C 2858.92,716.692 2877.92,723.692 2894.5,737C 2910.47,753.58 2917.31,773.414 2915,796.5C 2913.76,814.822 2906.26,829.989 2892.5,842C 2886.8,845.846 2881.13,849.68 2875.5,853.5C 2890.36,874.529 2905.03,895.696 2919.5,917C 2902.16,917.833 2884.82,917.666 2867.5,916.5C 2855.03,898.195 2842.36,880.029 2829.5,862C 2815.84,861.5 2802.17,861.333 2788.5,861.5C 2788.5,880.167 2788.5,898.833 2788.5,917.5C 2772.5,917.5 2756.5,917.5 2740.5,917.5C 2740.5,850.167 2740.5,782.833 2740.5,715.5 Z M 2788.5,754.5 C 2803.5,754.333 2818.5,754.5 2833.5,755C 2860.08,758.335 2870.92,773.169 2866,799.5C 2862.98,808.516 2857.15,815.016 2848.5,819C 2842.71,821.281 2836.71,822.614 2830.5,823C 2816.5,823.5 2802.5,823.667 2788.5,823.5C 2788.5,800.5 2788.5,777.5 2788.5,754.5 Z"/></g>
<g><path style="opacity:0.978" fill="#222322" d="M 3268.5,715.5 C 3284.5,715.5 3300.5,715.5 3316.5,715.5C 3316.5,741.833 3316.5,768.167 3316.5,794.5C 3346.5,794.5 3376.5,794.5 3406.5,794.5C 3406.5,768.167 3406.5,741.833 3406.5,715.5C 3422.17,715.5 3437.83,715.5 3453.5,715.5C 3453.5,782.833 3453.5,850.167 3453.5,917.5C 3437.83,917.5 3422.17,917.5 3406.5,917.5C 3406.5,890.167 3406.5,862.833 3406.5,835.5C 3376.5,835.5 3346.5,835.5 3316.5,835.5C 3316.5,862.833 3316.5,890.167 3316.5,917.5C 3300.5,917.5 3284.5,917.5 3268.5,917.5C 3268.5,850.167 3268.5,782.833 3268.5,715.5 Z"/></g>
</svg>